<svg xmlns="http://www.w3.org/2000/svg" width="35.924" height="45.453" viewBox="0 0 950.5 1202.6" shape-rendering="geometricPrecision" text-rendering="geometricPrecision" image-rendering="optimizeQuality" fill-rule="evenodd" clip-rule="evenodd"><path d="M480.48.6l-5.2-.6L0 49.81v869.98l475.32 282.81 473.76-281.88 1.48-.86V49.81L480.48.6zm402.15 427.21L476.07 188.17l-.03-3.67-3.06 1.76-3.1-1.97v3.85L67.91 427.5V111.02l407.41-42.76 407.34 42.76v316.79h-.03zM472.91 239.43l406.31 236.82-157.99 93.14-250.21-148.92-.52 49.92 208.28 123.94-30.35 17.87-177.41-105.55-.52 49.92 135 80.24-27.59 18.47-106.89-63.03-.52 49.83 65.38 38.49-63.49 38.13L71.77 480.55l401.14-241.12zm-405 294.21L470.47 773.2l.58 36.83-280.19-166.77-.52 49.95 281.47 169.15.65 37.97L191.17 733.1l-.44 49.89 282.94 170.12 1.65.86 287.24-171.88-.37-182.61 120.47-71.83v353.52l-407.38 242.4-407.37-242.4V533.64z" fill-rule="nonzero"/></svg>