<svg xmlns="http://www.w3.org/2000/svg" width="7.76mm" height="15.999" viewBox="0 0 776 423.32" shape-rendering="geometricPrecision" text-rendering="geometricPrecision" image-rendering="optimizeQuality" fill-rule="evenodd" clip-rule="evenodd"><path d="M619.17 423.32c-9.98 0-30.26-2.2-53.68-16.98-16.6-10.34-31.63-26-46.14-41.15-11.33-11.82-30.3-31.62-37.44-31.62-6.93 2.01-12.44 24.74-12.31 42.15.11 3.03-.02 20.79-12.1 32.58-11 10.75-28.15 13.03-31.46 13.38l-49.81.19c-25.02 0-112.73-5.86-192.18-81.15C89.02 250.51 7.25 77.52 3.81 70.22-1.29 57.8-2.61 41.58 7.74 30.4 17.88 19.31 35.7 17.72 42.89 17.54l105.62-.65 2.98.22c2.35.37 14.66 2.55 24.75 9.37 10.04 6.64 15.26 17.49 16.2 19.61.25.57 16.78 38.47 38.15 72.1 33.94 53.46 49.05 65.95 54.4 68.83 4.86-11.21 7.17-45.67 4.84-77.13.02-13.24-2.61-29.49-6.52-34.33-2.9-3.6-11.02-6.8-20.13-7.9L244.51 49.1c-2.49-17.67 16.42-32.93 29.72-38.84C293.3 1.77 320.59 0 355.64 0L374 .13c31.94.32 41.95 2.18 55.58 5.13 44.03 9.7 42.43 46.45 40.54 88.97-.54 12.47-1.19 26.89-1.19 43.55 0 4.05-.13 8.38-.29 12.86-.31 10.21-.82 27.89 2.41 35.03 5.67-3.89 22.04-17.86 53.6-66.7 20.25-31.29 36.21-68.2 39.24-75.3l.03-.02c4.7-11.55 15.72-25.28 41.72-25.41l110.56-.65c.31-.08 4.45-.43 9.75-.43 25.35 0 41.32 7.71 47.39 22.94 6.96 17.46 4.38 44.51-60.89 123.71-9.57 11.6-18.03 21.59-25.4 30.27-15.47 18.21-31.46 37.04-32 42.85 1.37 4.54 17.12 17.85 32.39 30.74 39.57 33.5 65.39 60.82 78.45 82.55 13.51 20.39 11.1 35.73 6.68 45.05-10.97 23.21-42.37 26.14-48.56 26.46L625.97 423c-1.42.16-3.75.32-6.8.32zM481.89 293.3c23.25 0 43.51 21.12 64.95 43.47 12.86 13.43 26.16 27.29 38.7 35.11 18.81 11.82 34.04 11.31 36.17 11.06l2.66-.24 98.43-1.26c4.42-.32 10.63-1.96 13.86-3.65-.46-1.05-1.24-2.53-2.53-4.49-11.62-19.29-35.91-44.57-69.48-73.01-30.63-25.87-46.59-39.36-48.25-60.27-1.7-21.63 12.76-38.66 41.57-72.61 7.25-8.55 15.63-18.41 25.02-29.8 40.33-48.91 50.62-70.91 53.23-79.4-4.39-.78-16.76-.57-17.53-.49l-112.82.76c-4.94.02-6.44.94-6.44.96-4.55 11.12-21 48.68-42.52 81.94-49.02 75.75-72.05 85.96-88.14 85.98-5.27 0-10.24-1.34-14.71-3.97-25.95-15.29-24.92-49.27-24.17-74.06.13-4.01.26-7.93.26-11.58 0-17.35.65-32.42 1.24-45.37 1.97-45.13.42-45.46-9.8-47.71-10.58-2.31-18.23-3.95-48-4.27l-17.93-.14c-16.14 0-34.74.38-49.3 2.64 2.38 1.98 4.65 4.21 6.7 6.74 15.21 18.91 15.62 52.41 15.55 58.94 3.36 44.21 1.57 101.97-26.34 115.86-4.94 2.47-10.14 3.68-15.44 3.68-23.96 0-47.96-23.78-88.6-87.77-23.15-36.37-40.35-75.86-41.05-77.55-.29-.56-1.4-2.07-1.94-2.52-2.15-1.45-6.03-2.61-8.28-3.12l-103.5.64c-.54.03-1.16.06-1.81.14 15.29 31.94 88.62 177.08 168.63 253.01 70.88 67.21 150.71 70.62 166 70.62l47.87-.08c1.19-.27 5.64-1.66 6.96-2.68-.49.48-.26-1.43-.26-2.61-.08-7.12.31-69.71 40.82-81.5 3.26-.91 6.7-1.4 10.22-1.4z" fill-rule="nonzero"/></svg>