<svg xmlns="http://www.w3.org/2000/svg" width="21.333" height="21.333" viewBox="0 0 564.44 564.44" shape-rendering="geometricPrecision" text-rendering="geometricPrecision" image-rendering="optimizeQuality" fill-rule="evenodd" clip-rule="evenodd"><defs><style>.fil0{fill:#221e1f;fill-rule:nonzero}</style></defs><g id="__x0023_Layer_x0020_1"><path class="fil0" d="M417.16 36.81c60.89 0 110.44 49.6 110.44 110.52v270.11c0 60.91-49.55 110.48-110.44 110.48h-269.9c-60.9 0-110.45-49.57-110.45-110.48V147.33c0-60.92 49.55-110.49 110.45-110.49h269.9v-.03zm0-36.81h-269.9C66.23 0 0 66.28 0 147.33v270.13c0 80.97 66.23 147.3 147.26 147.3h269.97c80.93 0 147.21-66.33 147.21-147.35V147.33C564.44 66.28 498.16 0 417.16 0z"/><path class="fil0" d="M282.21 173.8c59.91 0 108.75 48.74 108.75 108.73 0 59.92-48.84 108.78-108.75 108.78-59.99 0-108.73-48.84-108.73-108.78 0-59.99 48.75-108.73 108.73-108.73zm0-36.83c-80.37 0-145.56 65.17-145.56 145.56 0 80.4 65.17 145.54 145.56 145.54s145.51-65.14 145.51-145.54c0-80.39-65.12-145.56-145.51-145.56zm150.76-37.81c18.19 0 32.93 14.74 32.93 32.92 0 18.19-14.74 32.93-32.93 32.93-18.19 0-32.93-14.74-32.93-32.93 0-18.18 14.74-32.92 32.93-32.92z"/></g></svg>