<svg xmlns="http://www.w3.org/2000/svg" width="13.333" height="25.333" viewBox="0 0 352.78 670.28" shape-rendering="geometricPrecision" text-rendering="geometricPrecision" image-rendering="optimizeQuality" fill-rule="evenodd" clip-rule="evenodd"><path d="M248.72 670.28H70.86V358.59H.01V204.62h68.6c-5.27-69.73 7.78-120.77 39.65-155.65C135.37 19.28 175.66 2.81 227.98.03L352.77.01v148.55h-97.99c-4.33 7.61-6.55 26.4-6.58 56.06h103.82v153.99h-103.3v311.67zM110 634.04h99.58V322.36h103.26v-81.5H209.68l-.41-17.73c-1.15-49.28.05-91.4 26.28-107.73l4.95-3.07h73.1V36.24h-84.53c-40.62 2.2-70.73 14.03-90.93 36.14-27.17 29.73-36.8 79.66-28.68 148.4l2.4 20.1H39.15v81.52H110v311.64z" fill-rule="nonzero"/></svg>