<svg xmlns="http://www.w3.org/2000/svg" width="566.933" height="566.933" viewBox="0 0 15000.1 15000.1" shape-rendering="geometricPrecision" text-rendering="geometricPrecision" image-rendering="optimizeQuality" fill-rule="evenodd" clip-rule="evenodd"><path d="M3880.55-1509.89h70.56c126.1 65.5 201.56 175.61 266.27 296.9 108.61 203.57 185.98 419.75 243.94 641.32 39.44 150.74 121.01 222.88 274.36 249.46 433.05 75.04 748.67 322.03 968.98 696.93 137.43 233.87 244.3 481.97 341.72 734.58 264.48 685.78 466.6 1392.87 713.18 2084.7 117.74 330.36 122.57 326.01 475.65 329.43 419.63 4.05 390.25-65.65 396.64 399.64 2.03 147.49-44.44 221.92-200.11 214.44-48.21-2.32-120.76-24.39-138.95 40.11-15.13 53.62 44.36 90.9 79.93 128.56 220.96 233.9 497.63 370.27 803.68 453.01 351.56 95.05 709.99 169.29 1054.34 285.47 878.35 296.35 1692.78 710.04 2325.68 1410.28 386.36 427.47 652 934.23 877.84 1460.01 688.06 1601.95 1010.33 3297.38 1266.83 5008.79 120.15 801.71 204.73 1607.88 270.29 2415.54 32.74 403.37 75.14 807.09 69.16 1213.05H7866.93c-21.76-85.93 13.71-162.71 42.89-238.55 125.67-326.56 383.36-496.77 708.92-572.13 128.63-29.78 145.03-68.52 65.09-170.32-135.69-172.77-224.86-371.65-294.7-578.26-302.51-894.94-419.32-1828.95-565.27-2755.7-111.4-707.37-277.69-1391.9-644.18-2016.17-270.93-461.49-610.51-861.33-1036.48-1186.44-153.9-117.46-158.79-117.49-185.13 81.9-17.63 133.49-22.25 268.79-30.44 403.42-53.53 880.36-48.79 1760.31 31.94 2638.82 62.95 685.02 87.91 1369.23 28.37 2056.41-68.62 791.9-213.72 1569.06-414.05 2337.02H3104.44c59.91-408.46 389.84-749.6 785.67-826.97 237.74-46.47 468.3-15.14 698.02 37.67 110.8 25.47 157.07 5.5 166.43-120.88 73.32-990.32 23.25-1974.65-178.09-2945.68-232.62-1121.95-451.7-2246.12-567.91-3385.98-48.27-473.49-191.57-898.66-421.34-1308.56-221.17-394.55-413.69-805.07-630.84-1202-172.09-314.55-204.83-632.47-76.87-966.4 50.42-131.59 98.21-264.93 159.66-391.41 177.16-364.61 365.13-724 539.83-1089.75 90.34-189.13 71.72-209.32-131.42-213.68-302.14-6.48-302.23-6.48-306.98-305.97-.65-41.13 1.02-82.3.2-123.42-2.54-128.17 47.4-199.02 188.04-188.59 93.55 6.94 188.05.03 282.07 1.79 128.17 2.41 165.11-53.62 133.71-177.78-107.35-424.58-514.91-772.64-951.54-825.99-414.77-50.67-820.27 8.17-1224.87 80.27-120.22 21.42-186.44-4.87-231.84-119.11-73.75-185.58-156.82-367.52-238.72-549.76-34.19-76.09-36.93-142.87 17.22-213.19 588.72-764.48 1230.29-1471.02 2106.49-1919 91.92-47 142.91-107.02 164.46-209.58 55.58-264.49 120.52-527 234.83-774.27 60.05-129.88 129.25-251.27 259.9-323.98z" fill-rule="nonzero"/></svg>