<svg xmlns="http://www.w3.org/2000/svg" width="566.933" height="566.933" viewBox="0 0 15000.1 15000.1" shape-rendering="geometricPrecision" text-rendering="geometricPrecision" image-rendering="optimizeQuality" fill-rule="evenodd" clip-rule="evenodd"><path d="M14249.64 4889.24c143.81-223.2 324.08-403.69 542.84-549.43 118.69-79.07 194.31-78.88 257.46 65.57 100.78 230.5 180.22 460.82 108.01 715.5-26.12 92.12-7.14 171.14 50.17 247.87 66.74 89.35 126.09 184.27 187.83 277.31 151.04 227.61 212.46 467.41 110.28 734.75-44.67 116.86-49.35 238.15-24.22 363.93 22.99 115.07 18.67 234.01-.03 351.12-30.61 191.69-129.74 325.81-322.93 376.63-152.08 39.99-284.16 109.48-383.31 235.13-25.75 32.64-58.51 57.86-102.15 63.76-140.92 19.05-499.33-298.92-498.91-442.82.06-23.5 1.4-47 1.83-70.51 7.9-425.09-17.56-466.28-407.56-636.6-82.06-35.83-160.17-76.31-216.34-146.95-77.41-97.34-171.5-88.4-269.94-47.09-99.68 41.83-165.55 106.76-152.3 228.55 31.16 286.39 43.16 573.86 41.77 862-.17 33.53 9.14 72.84 27.89 99.86 369.98 533.09 509.34 1160.04 693.85 1763.64 140.79 460.6 405.86 710.98 882.37 744.65 75.83 5.36 150.91 23.04 225.97 36.99 213.26 39.64 340.97 174.03 403.78 374.54 78.19 249.58 39.21 302.72-220.63 304.45-258.62 1.73-517.29-1.35-775.89 2.07-104.58 1.38-193.6-19.01-272.06-96.36-115.06-113.44-265.88-171.44-410.68-235.63-158.89-70.44-306.54-159.05-401.13-306.05-132.35-205.69-312.38-365.32-480.94-536.82-337.78-343.64-687.45-675.47-1006.95-1037.25-229.96-260.39-380.57-549.67-377.64-903.69.92-111.21-27.89-157.65-142-101.67-36.46 17.89-78.1 34.72-117.64 35.35-336.38 5.39-500.88 206.21-620.03 495.95-104.59 254.32-253.87 490.07-379.78 735.87-83.85 163.69-138.23 336.5-138.05 523.32.26 279.17 65.93 379.43 329.13 473.39 163.15 58.24 320.12 119.26 409.34 282.96 100.81 184.95 71.19 241.99-135.81 244.06-270.37 2.71-540.81-1.31-811.16 2.19-105.16 1.36-175.94-35.05-227.29-130.6-66.65-124.01-146.62-240.84-220.58-360.93-122.7-199.24-172.46-402.85-89.4-637.22 72.2-203.73 39.62-422.05 9.53-629.53-44.83-308.98 3.96-584.94 206.17-826.51 65.93-78.76 74.5-122.15-47.13-145-494.1-92.81-961.16-267.04-1413.23-483.89-5.3-2.54-10.67-4.97-16.16-7.08-381.56-146.57-455.01-113.78-562.21 270.7-93.07 333.72-189.99 667.16-262.64 1005.58-80.27 373.95 13.55 735.34 133.72 1088.54 46.66 137.16 186.36 131.34 293.48 162.77 234.53 68.82 436.56 168.05 539 410.79 79.61 188.65 69.28 214.14-130.19 215.78-205.73 1.7-412.18-10.16-617 3.53-194.83 13.03-340.22-61.55-499.14-167.71-574.83-383.98-738.03-957.16-784.18-1595.28-28.65-396.21-237.5-705.54-491.02-992.17-49.25-55.68-94.03-78.62-165.61-33.2-250.3 158.83-532.21 246.44-806.81 350.47-577.55 218.79-1078.54 545.3-1457.46 1042.03-137.82 180.67-232.83 381.02-266.5 606.95-31.79 213.37 28.07 303.41 234.24 364.18 228.19 67.25 318.64 177.75 344.49 408.09 10.94 97.46-24.34 147.66-122.36 147.69-323.27.11-646.54-.92-969.81-2-71.51-.24-117.51-42.5-160.14-95.05-154.37-190.3-226.81-410.74-233.08-651.84-10.74-412.68 37.74-820.95 110.5-1226.31 44.91-250.18 162.85-455.43 400.71-567.6 706.16-333.01 1075.21-957.08 1408.1-1614.83 67.13-132.63 7.7-152.73-107.34-142.45-345.49 30.89-641.53 184.19-918.1 378.48-356.68 250.57-677.71 544.44-995.72 841.54-348.21 325.31-743.64 551.34-1231.76 585.63-824.47 57.92-1238.83-418.36-1197.75-1210.44 14-269.87 104.83-519.56 290.02-723.17 142.83-157.02 316.48-242.84 536.13-179.26 182.49 52.83 229.52 144.73 154.17 315.56-30.59 69.34-77.98 131.08-114.49 198.04-42.04 77.11-89.75 152.88-118.92 234.95-125.68 353.57 43.77 605.54 417.77 637.32 396.74 33.71 719.24-131.74 1018.49-366.32 363.19-284.71 679.9-620.02 962.25-979.09 445.46-566.49 1021.17-868.93 1721.84-960 271.34-35.28 515.91-156.65 775.6-229.53 495.64-139.1 997.34-222.2 1512.64-209.6 242.86 5.93 467.4-32.73 699.29-127.25 582.43-237.39 1191.59-236.46 1802.65-113.53 477.99 96.16 950.43 215.97 1424.62 328.19 268.31 63.51 562.28 40.75 836.23-18.87 529-115.13 1058.5-222.54 1600.97-232.51 354.88-6.52 702.31 51.37 1029.24 201.4 228.29 104.75 228.49 104.3 159.73 330.02z" fill-rule="nonzero"/></svg>